<svg width="220" height="171" viewBox="0 0 220 171" fill="none" xmlns="http://www.w3.org/2000/svg">
<g clip-path="url(#clip0_0_158)">
<path d="M220.003 171.015C218.325 158.488 220.279 146.79 201.179 130.239C195.868 125.64 187.245 123.594 177.551 120.952C178.059 120.587 178.401 120.266 178.578 119.99C189.233 102.941 177.673 91.1107 177.673 91.1107C183.359 78.4844 175.343 65.8801 175.343 65.8801C180.764 51.9823 169.458 40.141 169.458 40.141C172.241 23.866 155.481 17.0443 155.481 17.0443C150.435 0.249694 127.823 3.63293 127.823 3.63293C114.21 -4.68143 98.5871 3.9204 98.5871 3.9204C80.2262 1.25582 73.4802 17.9841 73.4802 17.9841C59.083 20.1843 58.9394 44.3092 58.9394 44.3092C45.6904 49.8484 52.3149 78.4844 52.3149 78.4844C41.2409 94.8256 52.3149 112.151 52.3149 112.151L52.9884 112.759C53.0878 114.196 53.154 114.992 53.154 114.992C53.2755 116.164 53.3086 117.27 53.2755 118.331C45.2157 121.449 33.5455 127.077 25.8831 135.679C19.5567 142.788 11.1767 150.196 5.77773 159.008C3.08376 163.408 1.20682 167.001 0.0144043 171.015H33.4903C36.4382 164.282 40.0375 157.637 40.0375 157.637L38.9445 171.015H189.785C189.586 169.876 189.442 168.737 189.376 167.587C189.221 164.47 188.68 161.097 187.897 157.648C192.07 161.827 191.96 168.494 192.269 171.026H220.003V171.015Z" fill="#FF6034"/>
<path d="M104.013 69.1289C106.862 69.1289 109.169 66.8181 109.169 63.9656C109.169 61.113 106.862 58.8022 104.013 58.8022C101.165 58.8022 98.8571 61.113 98.8571 63.9656C98.8571 66.8181 101.165 69.1289 104.013 69.1289Z" fill="white"/>
<path d="M118.038 69.1289C120.886 69.1289 123.194 66.8181 123.194 63.9656C123.194 61.113 120.886 58.8022 118.038 58.8022C115.189 58.8022 112.881 61.113 112.881 63.9656C112.881 66.8181 115.189 69.1289 118.038 69.1289Z" fill="white"/>
<path d="M113.74 83.9888L117.185 75.7407L110.583 70.3784L105.658 73.3747L104.013 82.5072L108.253 85.2381L113.74 83.9888Z" fill="#040000"/>
<path d="M118.063 66.4643C119.441 66.4643 120.558 65.3455 120.558 63.9655C120.558 62.5855 119.441 61.4668 118.063 61.4668C116.685 61.4668 115.568 62.5855 115.568 63.9655C115.568 65.3455 116.685 66.4643 118.063 66.4643Z" fill="#1F2421"/>
<path d="M103.743 66.4643C105.121 66.4643 106.238 65.3455 106.238 63.9655C106.238 62.5855 105.121 61.4668 103.743 61.4668C102.364 61.4668 101.247 62.5855 101.247 63.9655C101.247 65.3455 102.364 66.4643 103.743 66.4643Z" fill="#1F2421"/>
<path d="M110.759 92.9023C111.832 92.9024 112.861 93.5557 113.642 94.7275C114.421 95.8962 114.918 97.5374 114.918 99.373C114.918 101.209 114.421 102.85 113.642 104.019C112.861 105.19 111.832 105.844 110.759 105.844C109.685 105.844 108.656 105.191 107.875 104.019C107.096 102.85 106.598 101.209 106.598 99.373C106.598 97.5373 107.096 95.8962 107.875 94.7275C108.656 93.5556 109.685 92.9023 110.759 92.9023Z" stroke="white" stroke-width="0.92437"/>
</g>
<defs>
<clipPath id="clip0_0_158">
<rect width="220" height="171.008" fill="white"/>
</clipPath>
</defs>
</svg>
